<svg width="100" height="100" viewBox="0 0 100 100" xmlns="http://www.w3.org/2000/svg"><g fill="#e8dfcc">
  <defs>
    <pattern id="hatch-pattern" x="0" y="0" width="10" height="10" patternUnits="userSpaceOnUse">
      <line x1="0" y1="0" x2="10" y2="0" stroke="#e8dfcc" stroke-width="1" stroke-dasharray="5,5"/>
      <line x1="0" y1="0" x2="10" y2="10" stroke="#e8dfcc" stroke-width="1" stroke-dasharray="5,5"/>
      <line x1="0" y1="10" x2="10" y2="10" stroke="#e8dfcc" stroke-width="1" stroke-dasharray="5,5"/>
      <line x1="0" y1="10" x2="10" y2="0" stroke="#e8dfcc" stroke-width="1" stroke-dasharray="5,5"/>
    </pattern>
  </defs>
  
  <!-- Mountain Top -->
  <rect x="20" y="20" width="60" height="40" fill="none" stroke="#e8dfcc" stroke-width="2" />
  
  <!-- Mountain Body -->
  <rect x="25" y="25" width="50" height="40" fill="none" stroke="#e8dfcc" stroke-width="2" />
  
  <!-- Mountain Peak -->
  <circle cx="35" cy="30" r="12" fill="none" stroke="#e8dfcc" stroke-width="2" />
  
  <!-- Shadow on Right -->
  <rect x="65" y="20" width="10" height="40" fill="none" stroke="#e8dfcc" stroke-width="2" />
  
  <!-- Shadow on Left -->
  <rect x="5" y="20" width="10" height="40" fill="none" stroke="#e8dfcc" stroke-width="2" />
  
  <!-- Mountain Face -->
  <rect x="10" y="20" width="80" height="20" fill="none" stroke="#e8dfcc" stroke-width="2" />
  
  <!-- Mountain Body -->
  <rect x="30" y="20" width="70" height="20" fill="none" stroke="#e8dfcc" stroke-width="2" />
  
  <!-- Mountain Peak -->
  <circle cx="40" cy="20" r="10" fill="none" stroke="#e8dfcc" stroke-width="2" />
  
  <!-- Shadow on Right -->
  <rect x="70" y="20" width="10" height="20" fill="none" stroke="#e8dfcc" stroke-width="2" />
  
  <!-- Shadow on Left -->
  <rect x="0" y="20" width="10" height="20" fill="none" stroke="#e8dfcc" stroke-width="2" />
  
  <!-- Mountain Face -->
  <rect x="10" y="20" width="60" height="15" fill="none" stroke="#e8dfcc" stroke-width="2" />
  
  <!-- Mountain Body -->
  <rect x="30" y="20" width="50" height="15" fill="none" stroke="#e8dfcc" stroke-width="2" />
  
  <!-- Mountain Peak -->
  <circle cx="40" cy="20" r="8" fill="none" stroke="#e8dfcc" stroke-width="2" />
  
  <!-- Shadow on Right -->
  <rect x="70" y="20" width="10" height="15" fill="none" stroke="#e8dfcc" stroke-width="2" />
  
  <!-- Shadow on Left -->
  <rect x="0" y="20" width="10" height="15" fill="none" stroke="#e8dfcc" stroke-width="2" />
  
  <!-- Mountain Face -->
  <rect x="10" y="20" width="40" height="10" fill="none" stroke="#e8dfcc" stroke-width="2" />
  
  <!-- Mountain Body -->
  <rect x="30" y="20" width="30" height="10" fill="none" stroke="#e8dfcc" stroke-width="2" />
  
  <!-- Mountain Peak -->
  <circle cx="40" cy="20" r="5" fill="none" stroke="#e8dfcc" stroke-width="2" />
  
  <!-- Shadow on Right -->
  <rect x="70" y="20" width="10" height="10" fill="none" stroke="#e8dfcc" stroke-width="2" />
  
  <!-- Shadow on Left -->
  <rect x="0" y="20" width="10" height="10" fill="none" stroke="#e8dfcc" stroke-width="2" />
</g></svg>